<svg width="26" height="24" viewBox="0 0 26 24" fill="none" xmlns="http://www.w3.org/2000/svg">
<path fill-rule="evenodd" clip-rule="evenodd" d="M12.5179 1C6.17573 1 1.01477 6.26731 1.01477 12.7898C1.01477 16.5744 2.75337 19.9392 5.45398 22.0956C5.66977 22.2679 5.70502 22.5825 5.53272 22.7983C5.36041 23.0141 5.0458 23.0493 4.83001 22.877C1.89779 20.5357 0.0147705 16.8862 0.0147705 12.7898C0.0147705 5.73742 5.60132 0 12.5179 0C14.4031 0 16.1923 0.42722 17.7962 1.19233L17.7974 1.19288C22.0677 3.23035 25.0211 7.66007 25.0211 12.7898C25.0211 16.9898 23.041 20.7204 19.9806 23.0527C19.7609 23.2201 19.4472 23.1778 19.2798 22.9581C19.1124 22.7385 19.1548 22.4248 19.3744 22.2574C22.1929 20.1095 24.0211 16.6701 24.0211 12.7898C24.0211 8.04971 21.2929 3.96817 17.3657 2.0949L17.3645 2.09433C15.8919 1.39211 14.25 1 12.5179 1ZM12.7777 3.68854C11.1123 3.68854 9.75673 5.0481 9.75673 6.73183C9.75673 8.41559 11.1123 9.77512 12.7777 9.77512C14.4431 9.77512 15.7986 8.41559 15.7986 6.73183C15.7986 5.0481 14.4431 3.68854 12.7777 3.68854ZM8.75673 6.73183C8.75673 4.50179 10.554 2.68854 12.7777 2.68854C15.0013 2.68854 16.7986 4.50179 16.7986 6.73183C16.7986 8.96191 15.0013 10.7751 12.7777 10.7751C10.554 10.7751 8.75673 8.96191 8.75673 6.73183ZM12.5748 12.5395C12.4335 12.5395 12.3165 12.5779 12.2471 12.6258C12.2319 12.6363 12.2161 12.6459 12.1999 12.6547L6.95792 15.4717C6.89609 15.5207 6.83615 15.6027 6.80029 15.7075C6.76092 15.8227 6.76415 15.9251 6.78641 15.9901L6.78642 15.9901L8.77825 21.8106C8.80097 21.8769 8.86485 21.967 8.97575 22.0435C9.08562 22.1193 9.20353 22.1551 9.29482 22.1551H15.7408C15.8323 22.1551 15.9502 22.1193 16.06 22.0436C16.1707 21.9672 16.2346 21.8771 16.2574 21.8107L16.2574 21.8106L18.2496 15.9901C18.2718 15.9252 18.275 15.8229 18.2356 15.7077C18.1994 15.602 18.1388 15.5195 18.0763 15.4706L12.9458 12.6525C12.9309 12.6443 12.9165 12.6354 12.9026 12.6258C12.8332 12.5779 12.7162 12.5395 12.5748 12.5395ZM13.4469 11.7868C13.1831 11.6131 12.8675 11.5395 12.5748 11.5395C12.2829 11.5395 11.9683 11.6127 11.705 11.7854L6.45443 14.607C6.43816 14.6158 6.4224 14.6254 6.4072 14.6359C6.13714 14.8222 5.95163 15.0987 5.85409 15.384C5.75677 15.6686 5.73353 16.002 5.84029 16.3139L5.8403 16.3139L7.83215 22.1345L7.83218 22.1345C7.9385 22.445 8.1607 22.6962 8.40797 22.8667C8.65629 23.038 8.96866 23.1551 9.29482 23.1551H15.7408C16.0671 23.1551 16.3795 23.038 16.6279 22.8667C16.8752 22.6961 17.0972 22.4449 17.2035 22.1345L17.2035 22.1345L19.1957 16.3139C19.3025 16.0018 19.2791 15.6684 19.1817 15.3838C19.084 15.0986 18.8984 14.8222 18.6285 14.6359C18.6145 14.6263 18.6001 14.6174 18.5853 14.6092L13.4469 11.7868Z" fill="white"/>
</svg>
