<svg width="41" height="37" viewBox="0 0 41 37" fill="none" xmlns="http://www.w3.org/2000/svg">
<path fill-rule="evenodd" clip-rule="evenodd" d="M20.7473 0.99826C20.7473 0.722118 20.5234 0.49826 20.2473 0.49826C19.9711 0.49826 19.7473 0.722118 19.7473 0.99826V4.41582C19.7473 4.69196 19.9711 4.91582 20.2473 4.91582C20.5234 4.91582 20.7473 4.69196 20.7473 4.41582V0.99826ZM11.6422 16.1546C12.4762 11.4845 16.0538 8.02602 20.3081 7.96105C24.8302 7.89198 28.7077 11.6828 29.3695 16.7789C29.3752 16.8231 29.3865 16.8652 29.4027 16.9045L27.1817 21.0449L20.748 10.9816C20.6545 10.8355 20.4921 10.7482 20.3186 10.751C20.1452 10.7538 19.9856 10.8463 19.897 10.9954L14.0747 20.7859L11.6422 16.1546ZM10.9292 14.7972C12.187 10.3391 15.8499 7.02902 20.293 6.96116C25.062 6.88833 29.0434 10.5737 30.1568 15.4986L30.9824 13.9596C31.0684 13.7993 31.2346 13.6984 31.4165 13.696C31.5983 13.6936 31.7672 13.7902 31.8573 13.9482L40.9342 29.858C41.0586 30.076 41.0021 30.3524 40.8022 30.5041L40.5 30.1058C40.8022 30.5041 40.8019 30.5044 40.8015 30.5046L40.8005 30.5054L40.7972 30.5079L40.7858 30.5164L40.7436 30.5475C40.707 30.5743 40.6534 30.6131 40.5831 30.6625C40.4427 30.7613 40.2359 30.9028 39.9659 31.0772C39.426 31.4259 38.6331 31.906 37.613 32.4379C35.5733 33.5012 32.6211 34.7735 28.9635 35.6137C26.4026 36.202 23.498 36.5777 20.3218 36.5229C20.2967 36.5266 20.271 36.5285 20.2448 36.5284C20.2136 36.5282 20.183 36.5252 20.1534 36.5196C14.2828 36.3904 7.49427 34.7859 0.238769 30.3413C0.0068256 30.1992 -0.0689893 29.8978 0.068135 29.6629L9.44019 13.6075C9.53183 13.4505 9.70145 13.3556 9.88319 13.3597C10.0649 13.3637 10.2301 13.4661 10.3147 13.627L10.9292 14.7972ZM28.7396 34.6391C26.3642 35.1848 23.6809 35.5436 20.7498 35.5278L20.7943 26.6707L20.8627 13.0176L26.7982 22.3016C26.8938 22.451 27.0614 22.5387 27.2386 22.5319C27.4159 22.5251 27.5763 22.4249 27.6601 22.2686L31.4365 15.2286L39.8411 29.96C39.7279 30.0374 39.5884 30.1306 39.4234 30.2372C38.9067 30.5708 38.1406 31.0351 37.1507 31.5511C35.1702 32.5836 32.2982 33.8217 28.7396 34.6391ZM14.4774 22.0652L19.8627 13.0094L19.7943 26.6657L19.7499 35.508C14.2518 35.319 7.93664 33.7881 1.17977 29.7421L9.84893 14.8909L13.605 22.0421C13.6892 22.2024 13.8535 22.3047 14.0345 22.3095C14.2154 22.3143 14.3849 22.2208 14.4774 22.0652ZM33.8803 6.72105C34.0228 6.95759 33.9466 7.26486 33.71 7.40734L29.4547 9.97051C29.2182 10.113 28.9109 10.0367 28.7684 9.80019C28.6259 9.56365 28.7022 9.25638 28.9387 9.1139L33.1941 6.55073C33.4306 6.40825 33.7379 6.4845 33.8803 6.72105ZM7.56641 6.55073C7.32986 6.40825 7.0226 6.4845 6.88012 6.72105C6.73764 6.95759 6.81389 7.26486 7.05044 7.40734L11.3058 9.97051C11.5423 10.113 11.8496 10.0367 11.992 9.80019C12.1345 9.56365 12.0583 9.25638 11.8217 9.1139L7.56641 6.55073ZM13.8404 3.14497C14.0705 2.99221 14.3808 3.05485 14.5335 3.28489L16.2357 5.84806C16.3884 6.0781 16.3258 6.38842 16.0957 6.54119C15.8657 6.69395 15.5554 6.6313 15.4026 6.40126L13.7005 3.83809C13.5477 3.60805 13.6104 3.29773 13.8404 3.14497ZM27.2995 3.83809C27.4523 3.60805 27.3896 3.29773 27.1596 3.14497C26.9295 2.99221 26.6192 3.05485 26.4665 3.28489L24.7643 5.84806C24.6116 6.0781 24.6742 6.38842 24.9043 6.54119C25.1343 6.69395 25.4446 6.6313 25.5974 6.40126L27.2995 3.83809Z" fill="white"/>
</svg>
