<svg width="30" height="25" viewBox="0 0 30 25" fill="none" xmlns="http://www.w3.org/2000/svg">
<path d="M6.08337 4.47292L11.3889 17.2387H24.46L28.9852 3.77802" stroke="white" stroke-linecap="round" stroke-linejoin="round"/>
<path d="M6.08337 3.77802H28.9852" stroke="white" stroke-linecap="round" stroke-linejoin="round"/>
<path d="M7.33509 7.59709L4.71008 1" stroke="white" stroke-linecap="round" stroke-linejoin="round"/>
<path d="M1.01807 1H4.71009" stroke="white" stroke-linecap="round" stroke-linejoin="round"/>
<path d="M11.491 17.5918L10.3102 20.0553" stroke="white" stroke-linecap="round" stroke-linejoin="round"/>
<path d="M23.9352 20.0551H10.2831" stroke="white" stroke-linecap="round" stroke-linejoin="round"/>
<path fill-rule="evenodd" clip-rule="evenodd" d="M10.3536 23.316C10.3536 22.8526 10.7293 22.477 11.1926 22.477C11.656 22.477 12.0317 22.8526 12.0317 23.316C12.0317 23.779 11.656 24.155 11.1926 24.155C10.7293 24.155 10.3536 23.779 10.3536 23.316Z" fill="white" stroke="white" stroke-linecap="round" stroke-linejoin="round"/>
<path fill-rule="evenodd" clip-rule="evenodd" d="M22.337 23.316C22.337 22.8526 22.6948 22.477 23.1364 22.477C23.5777 22.477 23.9354 22.8526 23.9354 23.316C23.9354 23.779 23.5777 24.155 23.1364 24.155C22.6948 24.155 22.337 23.779 22.337 23.316Z" fill="white" stroke="white" stroke-linecap="round" stroke-linejoin="round"/>
</svg>
